<?xml version="1.0" encoding="UTF-8"?>
<svg xmlns="http://www.w3.org/2000/svg" xmlns:xlink="http://www.w3.org/1999/xlink" width="40px" height="40px" viewBox="0 0 40 40" version="1.1">
<g id="surface1">
<path style=" stroke:none;fill-rule:nonzero;fill:rgb(100%,100%,100%);fill-opacity:1;" d="M 14.398438 4.558594 L 8.828125 8.214844 L 8.515625 15.28125 L 13.5 17.273438 L 20.238281 13.285156 L 20.785156 7.527344 Z M 14.398438 4.558594 "/>
<path style=" stroke:none;fill-rule:nonzero;fill:rgb(100%,100%,100%);fill-opacity:1;" d="M 26.054688 19.230469 L 26.273438 18.765625 L 26.257812 18.753906 Z M 26.054688 19.230469 "/>
<path style=" stroke:none;fill-rule:nonzero;fill:rgb(100%,100%,100%);fill-opacity:1;" d="M 15.070312 35.960938 L 21.277344 36.550781 L 25.722656 31.691406 L 22.835938 25.957031 L 22.851562 25.921875 L 15.449219 25.214844 L 11.464844 30.148438 L 11.496094 30.167969 L 11.511719 30.171875 Z M 15.070312 35.960938 "/>
<path style=" stroke:none;fill-rule:nonzero;fill:rgb(100%,100%,100%);fill-opacity:1;" d="M 21.511719 36.792969 L 14.925781 36.167969 L 14.929688 36.128906 L 13.5 36.398438 C 15.046875 37.011719 16.671875 37.398438 18.324219 37.558594 C 19.832031 37.699219 21.351562 37.648438 22.851562 37.40625 Z M 21.511719 36.792969 "/>
<path style=" stroke:none;fill-rule:nonzero;fill:rgb(100%,100%,100%);fill-opacity:1;" d="M 28.308594 5.695312 L 33.054688 10.402344 L 35.441406 11.488281 C 33.65625 8.261719 30.910156 5.671875 27.582031 4.078125 Z M 28.308594 5.695312 "/>
<path style=" stroke:none;fill-rule:nonzero;fill:rgb(100%,100%,100%);fill-opacity:1;" d="M 35.035156 24.167969 L 33.210938 20.351562 L 31.894531 17.808594 L 26.507812 18.929688 L 24.707031 22.691406 L 23.394531 25.359375 L 23.152344 25.914062 L 25.921875 31.464844 L 28.929688 30.625 L 32.210938 29.761719 Z M 35.035156 24.167969 "/>
<path style=" stroke:none;fill-rule:nonzero;fill:rgb(100%,100%,100%);fill-opacity:1;" d="M 20.59375 13.382812 L 26.390625 18.554688 L 31.773438 17.542969 L 32.808594 10.546875 L 28.136719 5.914062 L 21.144531 7.609375 Z M 20.59375 13.382812 "/>
<path style=" stroke:none;fill-rule:nonzero;fill:rgb(100%,100%,100%);fill-opacity:1;" d="M 5.347656 27.148438 L 5.375 27.160156 L 5.339844 27.140625 L 3.535156 21.046875 L 3.539062 21.035156 L 2.371094 19.464844 C 2.253906 23.234375 3.351562 26.9375 5.503906 30.03125 Z M 5.347656 27.148438 "/>
<path style=" stroke:none;fill-rule:nonzero;fill:rgb(100%,100%,100%);fill-opacity:1;" d="M 35.34375 24.175781 L 32.402344 30 L 32.367188 30.011719 L 31.539062 33.328125 C 34.699219 30.59375 36.898438 26.742188 37.488281 22.316406 Z M 35.34375 24.175781 "/>
<path style=" stroke:none;fill-rule:nonzero;fill:rgb(100%,100%,100%);fill-opacity:1;" d="M 11.28125 29.929688 L 15.167969 25.117188 L 14.375 22.050781 L 13.351562 17.582031 L 8.328125 15.535156 L 5.003906 19.527344 L 3.839844 21.101562 L 5.574219 26.945312 L 8.617188 28.597656 Z M 11.28125 29.929688 "/>
<path style=" stroke:none;fill-rule:nonzero;fill:rgb(100%,100%,100%);fill-opacity:1;" d="M 21.035156 7.347656 L 21.0625 7.339844 L 19.851562 6.792969 Z M 21.035156 7.347656 "/>
<path style=" stroke:none;fill-rule:nonzero;fill:rgb(100%,100%,100%);fill-opacity:1;" d="M 8.558594 8.058594 L 14.332031 4.261719 L 15.085938 3.058594 C 11.824219 4.011719 8.902344 5.886719 6.671875 8.457031 Z M 8.558594 8.058594 "/>
<path style=" stroke:none;fill-rule:nonzero;fill:rgb(1.176471%,0%,0%);fill-opacity:1;" d="M 11.378906 30.253906 L 11.417969 30.273438 L 11.496094 30.167969 L 11.464844 30.148438 Z M 11.378906 30.253906 "/>
<path style=" stroke:none;fill-rule:nonzero;fill:rgb(1.176471%,0%,0%);fill-opacity:1;" d="M 23.136719 25.878906 L 23.152344 25.914062 L 23.394531 25.359375 Z M 23.136719 25.878906 "/>
<path style=" stroke:none;fill-rule:nonzero;fill:rgb(1.176471%,0%,0%);fill-opacity:1;" d="M 37.492188 14.5 C 34.460938 4.808594 24.140625 -0.59375 14.445312 2.441406 C 4.753906 5.472656 -0.648438 15.796875 2.382812 25.488281 C 5.417969 35.183594 15.738281 40.582031 25.429688 37.550781 C 32.492188 35.339844 37.542969 29.109375 38.246094 21.742188 C 38.484375 19.300781 38.226562 16.835938 37.492188 14.5 Z M 18.328125 37.558594 C 16.671875 37.398438 15.046875 37.011719 13.503906 36.398438 L 14.933594 36.128906 L 14.929688 36.167969 L 21.511719 36.792969 L 22.855469 37.402344 C 21.355469 37.648438 19.835938 37.699219 18.328125 37.558594 Z M 35.4375 11.488281 L 33.050781 10.402344 L 28.308594 5.695312 L 27.582031 4.078125 C 30.90625 5.671875 33.652344 8.261719 35.4375 11.488281 Z M 28.929688 30.625 L 25.921875 31.464844 L 23.152344 25.914062 L 23.136719 25.878906 L 23.394531 25.359375 L 24.707031 22.691406 L 26.507812 18.929688 L 31.898438 17.808594 L 33.214844 20.347656 L 35.035156 24.164062 L 32.210938 29.757812 Z M 11.496094 30.167969 L 11.417969 30.273438 L 11.378906 30.253906 L 11.464844 30.148438 L 15.449219 25.214844 L 22.851562 25.921875 L 22.835938 25.957031 L 25.722656 31.691406 L 21.277344 36.550781 L 15.070312 35.957031 L 11.511719 30.171875 Z M 20.238281 13.285156 L 13.5 17.273438 L 8.515625 15.285156 L 8.828125 8.21875 L 14.398438 4.558594 L 20.785156 7.53125 Z M 26.054688 19.230469 L 26.261719 18.757812 L 26.277344 18.769531 Z M 28.136719 5.914062 L 32.808594 10.546875 L 31.773438 17.542969 L 26.390625 18.554688 L 20.59375 13.382812 L 21.144531 7.609375 Z M 21.035156 7.347656 L 19.851562 6.796875 L 21.0625 7.339844 Z M 15.085938 3.058594 L 14.332031 4.261719 L 8.558594 8.058594 L 6.671875 8.457031 C 8.902344 5.890625 11.824219 4.015625 15.085938 3.058594 Z M 2.371094 19.464844 L 3.539062 21.039062 L 3.535156 21.050781 L 5.339844 27.140625 L 5.375 27.160156 L 5.347656 27.148438 L 5.503906 30.035156 C 3.351562 26.9375 2.253906 23.234375 2.371094 19.464844 Z M 3.839844 21.101562 L 5.003906 19.527344 L 8.328125 15.535156 L 13.351562 17.582031 L 14.378906 22.050781 L 15.171875 25.117188 L 11.28125 29.929688 L 8.621094 28.597656 L 5.578125 26.945312 Z M 31.539062 33.328125 L 32.367188 30.007812 L 32.402344 29.996094 L 35.34375 24.171875 L 37.488281 22.308594 C 36.898438 26.738281 34.699219 30.59375 31.539062 33.328125 Z M 31.539062 33.328125 "/>
</g>
</svg>
